# xmcd
#
# Track frame offsets: 
#        150
#        8738
#        24488
#        36188
#        51338
#        66713
#        82313
#        91313
#        101363
#        116063
#        125101
#        135720
#        148883
#        160658
#        176596
#        188896
#
# Disc length: 2669 seconds
#
# Revision: 1
# Processed by: cddbd v1.5.2PL0 Copyright (c) Steve Scherf et al.
# Submitted via: ExactAudioCopy v0.95b4
#
DISCID=ea0a6b10
DTITLE=Chrome Daddies - Chrome Daddies
DYEAR=2001
DGENRE=Rockabilly
TTITLE0=8 Ball
TTITLE1=Red Light, Blue Heart
TTITLE2=Catty Town
TTITLE3=I Flipped My Lid
TTITLE4=Dearest Darling
TTITLE5=You Ain't Half The Woman (Half The Time)
TTITLE6=32
TTITLE7=Strip Poker
TTITLE8=The  Mess You've Got Me In
TTITLE9=Smilin' In My Sleep
TTITLE10=Rock Bottom
TTITLE11=Down, Down, Down
TTITLE12=Let's Walk
TTITLE13=Boogie For Square Dancers
TTITLE14=Deep In The Heart Of Anywhere
TTITLE15=Stuart's Boogie
EXTD=
EXTT0=
EXTT1=
EXTT2=
EXTT3=
EXTT4=
EXTT5=
EXTT6=
EXTT7=
EXTT8=
EXTT9=
EXTT10=
EXTT11=
EXTT12=
EXTT13=
EXTT14=
EXTT15=
PLAYORDER=
